<svg xmlns="http://www.w3.org/2000/svg" width="1782" height="582" viewBox="0 0 1782 582" version="1.1"><path d="M 866 367.500 L 866 406 873 406 L 880 406 880 388.637 L 880 371.274 884.957 366.637 C 890.529 361.425, 893.976 360.700, 896.443 364.223 C 897.725 366.052, 898 369.941, 898 386.223 L 898 406 905.500 406 L 913 406 912.994 385.750 C 912.991 374.613, 912.517 363.800, 911.940 361.723 C 910.450 356.357, 905.609 351.241, 900.796 349.945 C 894.471 348.242, 885.829 350.314, 881.595 354.548 C 880.135 356.008, 880 354.993, 880 342.571 L 880 329 873 329 L 866 329 866 367.500 M 997.239 331.653 C 986.391 337, 983.043 350.430, 989.895 361.114 L 992.708 365.500 987.944 370.595 C 979.321 379.817, 978.624 392.613, 986.298 400.831 C 993.049 408.062, 1008.188 409.574, 1019.221 404.119 C 1022.852 402.324, 1022.973 402.326, 1024.221 404.188 C 1025.344 405.864, 1026.558 406.060, 1034.182 405.798 L 1042.863 405.500 1037.388 398.847 L 1031.913 392.194 1033.941 386.176 C 1035.056 382.867, 1036.087 377.536, 1036.234 374.329 L 1036.500 368.500 1030 368.500 L 1023.500 368.500 1023.187 373 C 1023.015 375.475, 1022.506 377.873, 1022.057 378.330 C 1021.608 378.786, 1019.155 376.600, 1016.606 373.471 L 1011.971 367.781 1017.146 364.141 C 1023.512 359.662, 1025.856 356.589, 1027.088 351.103 C 1028.881 343.123, 1024.575 334.521, 1017.258 331.463 C 1012.564 329.502, 1001.388 329.608, 997.239 331.653 M 1002.455 343.455 C 1001.016 344.893, 1000.002 347.066, 1000.004 348.705 C 1000.008 351.979, 1003.403 358, 1005.246 358 C 1008.162 358, 1014 350.591, 1014 346.889 C 1014 345.101, 1009.125 341, 1007 341 C 1005.850 341, 1003.805 342.105, 1002.455 343.455 M 708.143 350.441 C 705.747 351.217, 702.789 352.789, 701.569 353.935 C 699.082 356.271, 698 355.785, 698 352.333 C 698 350.128, 697.643 350, 691.500 350 L 685 350 685 378 L 685 406 692.500 406 L 700 406 700 388.368 L 700 370.737 704.368 366.368 C 711.289 359.448, 716.583 360.476, 717.722 368.961 L 718.263 373 725.132 373 L 732 373 732 367.712 C 732 361.137, 728.718 354.244, 724.413 351.776 C 720.125 349.318, 713.333 348.761, 708.143 350.441 M 759 349.625 C 757.625 349.890, 754.138 350.771, 751.250 351.582 L 746 353.056 746 358.361 C 746 361.279, 746.255 363.922, 746.567 364.234 C 746.879 364.546, 749.568 363.946, 752.542 362.901 C 755.746 361.775, 760.628 361, 764.520 361 C 770.163 361, 771.437 361.347, 773.545 363.455 C 775.077 364.986, 776 367.054, 776 368.955 L 776 372 768.682 372 C 753.793 372, 743.917 377.701, 742.506 387.111 C 741.030 396.952, 746.030 405.007, 754.742 406.823 C 762.530 408.446, 770.469 406.511, 775.750 401.701 L 778 399.651 778 402.826 L 778 406 784.598 406 L 791.196 406 790.823 384.250 C 790.520 366.547, 790.147 361.942, 788.820 359.500 C 786.695 355.588, 783.222 352.407, 779.565 351.021 C 776.304 349.785, 762.892 348.875, 759 349.625 M 822.344 349.977 C 811.596 352.270, 805.997 357.972, 806.004 366.618 C 806.011 375.527, 809.443 378.889, 823.367 383.625 C 831.954 386.545, 835 388.468, 835 390.966 C 835 396.863, 820.366 397.689, 807.750 392.505 C 806.181 391.860, 806 392.513, 806 398.813 L 806 405.841 812.750 406.670 C 821.665 407.766, 832.492 407.516, 837.705 406.094 C 845.897 403.859, 851 397.491, 851 389.500 C 851 380.450, 847.331 377.007, 832.356 372.008 C 822.483 368.711, 820.217 366.811, 822.343 363.610 C 823.079 362.502, 824.968 361.251, 826.543 360.830 C 829.174 360.126, 839.381 361.124, 844.750 362.610 C 846.903 363.206, 847 362.973, 847 357.233 C 847 351.858, 846.766 351.170, 844.750 350.623 C 840.566 349.489, 826.527 349.084, 822.344 349.977 M 1186.147 350.034 C 1176.025 352.120, 1169.320 358.765, 1166.546 369.460 C 1164.659 376.736, 1164.624 380.770, 1166.385 388.254 C 1169.360 400.895, 1177.602 407.198, 1191.244 407.264 C 1209.858 407.353, 1219.938 395.579, 1218.770 375.109 C 1218.063 362.706, 1213.696 355.267, 1205 351.651 C 1200.290 349.692, 1191.473 348.936, 1186.147 350.034 M 1254.236 349.979 C 1252.440 350.405, 1249.206 351.921, 1247.049 353.349 L 1243.127 355.944 1242.814 353.222 C 1242.514 350.621, 1242.223 350.487, 1236.250 350.202 L 1230 349.905 1230 377.952 L 1230 406 1237 406 L 1244 406 1244 388.637 L 1244 371.274 1248.957 366.637 C 1254.529 361.425, 1257.976 360.700, 1260.443 364.223 C 1261.725 366.052, 1262 369.941, 1262 386.223 L 1262 406 1269.500 406 L 1277 406 1276.994 385.750 C 1276.991 374.613, 1276.517 363.800, 1275.940 361.723 C 1273.293 352.190, 1264.643 347.510, 1254.236 349.979 M 1310.330 350.031 C 1300.251 351.456, 1291.506 358.900, 1288.876 368.292 C 1285.576 380.079, 1288.803 396.986, 1295.470 402.840 C 1302.424 408.945, 1314.711 408.761, 1322.001 402.442 C 1323.326 401.293, 1323.502 402.689, 1323.501 414.320 L 1323.500 427.500 1330.762 427.794 L 1338.023 428.088 1337.762 388.794 C 1337.533 354.417, 1337.312 349.555, 1336 349.942 C 1333.995 350.533, 1320.962 350.431, 1317.919 349.801 C 1316.588 349.525, 1313.173 349.629, 1310.330 350.031 M 1429.718 350.092 C 1418.020 352.846, 1411.148 362.201, 1410.213 376.646 C 1409.295 390.829, 1413.813 400.194, 1423.773 404.754 C 1428.449 406.895, 1430.861 407.330, 1437.954 407.312 C 1442.654 407.300, 1449.109 406.739, 1452.297 406.064 L 1458.095 404.838 1457.797 399.169 C 1457.536 394.180, 1457.260 393.526, 1455.500 393.713 C 1454.400 393.831, 1449.824 394.431, 1445.332 395.046 C 1437.898 396.065, 1436.758 395.987, 1432.653 394.171 C 1428.048 392.134, 1425 388.102, 1425 384.050 C 1425 382.062, 1425.525 382, 1442.481 382 L 1459.962 382 1460.603 379.447 C 1461.617 375.407, 1460.142 366.958, 1457.450 361.379 C 1452.792 351.725, 1441.793 347.248, 1429.718 350.092 M 1498.143 350.441 C 1495.747 351.217, 1492.789 352.789, 1491.569 353.935 C 1489.082 356.271, 1488 355.785, 1488 352.333 C 1488 350.128, 1487.643 350, 1481.500 350 L 1475 350 1475 378 L 1475 406 1482.500 406 L 1490 406 1490 388.368 L 1490 370.737 1494.368 366.368 C 1501.289 359.448, 1506.583 360.476, 1507.722 368.961 L 1508.263 373 1515.132 373 L 1522 373 1522 367.712 C 1522 361.137, 1518.718 354.244, 1514.413 351.776 C 1510.125 349.318, 1503.333 348.761, 1498.143 350.441 M 641.994 350.934 C 635.206 352.999, 628.800 358.368, 625.643 364.640 C 622.016 371.845, 621.937 387.111, 625.492 393.984 C 628.121 399.069, 633.728 403.641, 639.599 405.487 C 645.741 407.419, 660.147 407.239, 665.250 405.166 C 667.849 404.111, 668 403.696, 668 397.623 L 668 391.196 663.341 392.598 C 660.779 393.369, 656.088 394, 652.918 394 C 648.113 394, 646.619 393.550, 643.941 391.297 C 638.122 386.400, 636.499 378.792, 639.614 371.007 C 643.205 362.032, 653.293 359.944, 666.296 365.484 C 667.945 366.187, 668.068 365.647, 667.796 358.917 C 667.519 352.058, 667.338 351.539, 665 350.892 C 661.618 349.955, 645.111 349.986, 641.994 350.934 M 1127.994 350.934 C 1121.206 352.999, 1114.800 358.368, 1111.643 364.640 C 1108.016 371.845, 1107.937 387.111, 1111.492 393.984 C 1114.121 399.069, 1119.728 403.641, 1125.599 405.487 C 1131.741 407.419, 1146.147 407.239, 1151.250 405.166 C 1153.849 404.111, 1154 403.696, 1154 397.623 L 1154 391.196 1149.341 392.598 C 1146.779 393.369, 1142.088 394, 1138.918 394 C 1134.113 394, 1132.619 393.550, 1129.941 391.297 C 1124.122 386.400, 1122.499 378.792, 1125.614 371.007 C 1129.205 362.032, 1139.293 359.944, 1152.296 365.484 C 1153.945 366.187, 1154.068 365.647, 1153.796 358.917 C 1153.519 352.058, 1153.338 351.539, 1151 350.892 C 1147.618 349.955, 1131.111 349.986, 1127.994 350.934 M 1351 372.288 C 1351 393.420, 1351.117 394.807, 1353.250 399.015 C 1356.207 404.848, 1360.582 407.335, 1367.878 407.328 C 1373.715 407.323, 1378.649 405.458, 1382.750 401.709 L 1385 399.651 1385 402.826 L 1385 406 1391.516 406 L 1398.032 406 1397.766 378.250 L 1397.500 350.500 1390.500 350.500 L 1383.500 350.500 1383.227 368.232 L 1382.954 385.964 1379.204 389.906 C 1374.057 395.317, 1370.385 396.149, 1367.329 392.596 C 1365.059 389.957, 1365 389.385, 1365 369.944 L 1365 350 1358 350 L 1351 350 1351 372.288 M 1311.500 361.954 C 1308.763 363.086, 1305.352 366.923, 1304.067 370.315 C 1303.480 371.863, 1303.002 376.363, 1303.004 380.315 C 1303.011 395.202, 1311.553 399.451, 1320.381 388.959 C 1322.882 385.986, 1323 385.317, 1323 374.048 L 1323 362.250 1319.875 361.625 C 1315.934 360.837, 1314.019 360.912, 1311.500 361.954 M 1429.904 362.282 C 1428.188 363.591, 1425 369.227, 1425 370.950 C 1425 371.617, 1428.835 372, 1435.500 372 C 1444.316 372, 1446 371.751, 1446 370.450 C 1446 367.993, 1443.160 363.156, 1441.055 362.030 C 1438.449 360.635, 1431.867 360.783, 1429.904 362.282 M 1186.763 363.565 C 1182.619 365.814, 1180.707 370.458, 1180.617 378.495 C 1180.525 386.735, 1182.439 391.141, 1187.172 393.589 C 1193.113 396.661, 1199.827 393.923, 1202.638 387.282 C 1204.519 382.838, 1204.371 372.584, 1202.365 368.357 C 1199.597 362.523, 1192.628 360.383, 1186.763 363.565 M 998.269 377.673 C 997.181 379.228, 995.993 381.734, 995.629 383.242 C 994.770 386.795, 997.141 392.470, 1000.161 394.086 C 1003.139 395.680, 1009.839 395.692, 1012.796 394.109 C 1015.064 392.895, 1015.025 392.813, 1008.391 384.692 C 1004.710 380.187, 1001.372 376.128, 1000.972 375.673 C 1000.573 375.218, 999.356 376.118, 998.269 377.673 M 763.012 383.306 C 758.272 384.928, 756.193 389.119, 758.433 392.537 C 761.421 397.099, 766.604 396.728, 772.806 391.509 C 775.249 389.455, 776 388.020, 776 385.411 C 776 382, 775.999 382, 771.250 382.056 C 768.638 382.087, 764.930 382.650, 763.012 383.306" stroke="none" fill="#040404" fill-rule="evenodd"/><path d="M 1102.773 149.555 C 1094.012 151.679, 1087.098 155.669, 1080.500 162.410 C 1069.701 173.444, 1064.305 188.396, 1063.323 210 C 1061.949 240.267, 1069.317 262.612, 1084.314 273.652 C 1098.393 284.017, 1120.598 285.559, 1137.781 277.367 C 1147.701 272.637, 1154.774 265.417, 1159.925 254.763 C 1166.194 241.797, 1167.395 235.359, 1167.433 214.500 C 1167.460 199.082, 1167.143 195.227, 1165.222 187.626 C 1159.672 165.670, 1147.143 152.531, 1128.464 149.078 C 1120.709 147.644, 1109.821 147.846, 1102.773 149.555 M 633.459 151.250 C 633.197 151.938, 633.098 181.075, 633.241 216 L 633.500 279.500 672.784 279.762 L 712.068 280.023 711.784 269.262 L 711.500 258.500 685.750 258.233 L 660 257.966 660 240.983 L 660 224 685 224 L 710 224 710 213.500 L 710 203 685 203 L 660 203 660 187.500 L 660 172 686 172 L 712 172 712 161 L 712 150 672.969 150 C 642.665 150, 633.830 150.280, 633.459 151.250 M 117.247 222.253 C 80.811 258.692, 51 288.956, 51 289.506 C 51 290.056, 81.597 321.100, 118.994 358.494 L 186.988 426.483 200 413.500 L 213.011 400.518 158.006 345.506 C 127.752 315.249, 103 290.043, 103 289.493 C 103 288.943, 127.073 264.423, 156.495 235.005 L 209.990 181.517 197.259 168.759 C 190.258 161.741, 184.296 156, 184.012 156 C 183.727 156, 153.683 185.814, 117.247 222.253 M 386.493 169.007 L 373.516 182.013 427.257 235.754 L 480.998 289.495 425.753 344.747 L 370.508 399.999 383.755 413.246 L 397.002 426.493 465.001 358.499 C 502.400 321.103, 533 290.053, 533 289.500 C 533 288.507, 400.972 156, 399.983 156 C 399.701 156, 393.631 161.853, 386.493 169.007 M 1110.340 171.920 C 1102.609 173.854, 1095.453 181.243, 1093.004 189.823 C 1089.455 202.257, 1089.247 225.234, 1092.565 238.361 C 1096.028 252.064, 1103.682 259, 1115.342 259 C 1127.058 259, 1134.034 253.086, 1138.268 239.560 C 1140.172 233.481, 1140.480 230.208, 1140.489 216 C 1140.503 194.746, 1137.976 184.290, 1131.163 177.410 C 1126.506 172.706, 1117.107 170.228, 1110.340 171.920 M 779.892 179.297 C 773.237 182.103, 769.066 184.944, 765.657 188.996 L 763.156 191.968 762.461 185.484 L 761.767 179 750.884 179 L 740 179 740 229.500 L 740 280 752.500 280 L 765 280 765 248.552 L 765 217.104 769.984 211.115 C 777.285 202.342, 781.116 199.738, 787.500 199.208 C 792.195 198.819, 793.162 199.071, 795.345 201.254 C 799.582 205.491, 799.989 209.380, 799.994 245.750 L 800 280 812.543 280 L 825.086 280 824.793 240.250 C 824.506 201.259, 824.455 200.390, 822.165 194.716 C 819.596 188.351, 814.651 182.919, 808.500 179.707 C 805.467 178.123, 802.204 177.536, 795 177.276 C 786.783 176.980, 784.743 177.253, 779.892 179.297 M 989.973 179.277 C 968.142 186.720, 955.435 211.812, 958.994 240.452 C 961.695 262.186, 973.530 276.335, 993 281.105 C 1002.684 283.478, 1023.218 282.506, 1040.158 278.873 L 1045 277.834 1045 267.310 C 1045 258.532, 1044.760 256.878, 1043.551 257.342 C 1040.399 258.552, 1027.090 260.929, 1019.855 261.575 C 1003.095 263.070, 992.779 259.017, 987.852 249 C 986.364 245.975, 984.868 241.813, 984.528 239.750 L 983.909 236 1016.875 236 L 1049.841 236 1050.497 229.750 C 1051.349 221.621, 1049.632 208.383, 1046.865 201.751 C 1041.942 189.951, 1033.269 182.236, 1020.748 178.518 C 1012.868 176.178, 997.987 176.545, 989.973 179.277 M 1223.892 179.297 C 1217.237 182.103, 1213.066 184.944, 1209.657 188.996 L 1207.156 191.968 1206.461 185.484 L 1205.767 179 1194.884 179 L 1184 179 1184 229.500 L 1184 280 1196.500 280 L 1209 280 1209 248.552 L 1209 217.104 1213.984 211.115 C 1221.285 202.342, 1225.116 199.738, 1231.500 199.208 C 1236.195 198.819, 1237.162 199.071, 1239.345 201.254 C 1243.582 205.491, 1243.989 209.380, 1243.994 245.750 L 1244 280 1256.543 280 L 1269.086 280 1268.793 240.250 C 1268.506 201.259, 1268.455 200.390, 1266.165 194.716 C 1263.596 188.351, 1258.651 182.919, 1252.500 179.707 C 1249.467 178.123, 1246.204 177.536, 1239 177.276 C 1230.783 176.980, 1228.743 177.253, 1223.892 179.297 M 1323.973 179.277 C 1302.142 186.720, 1289.435 211.812, 1292.994 240.452 C 1295.695 262.186, 1307.530 276.335, 1327 281.105 C 1336.684 283.478, 1357.218 282.506, 1374.158 278.873 L 1379 277.834 1379 267.310 C 1379 258.532, 1378.760 256.878, 1377.551 257.342 C 1374.399 258.552, 1361.090 260.929, 1353.855 261.575 C 1337.095 263.070, 1326.779 259.017, 1321.852 249 C 1320.364 245.975, 1318.868 241.813, 1318.528 239.750 L 1317.909 236 1350.875 236 L 1383.841 236 1384.497 229.750 C 1385.349 221.621, 1383.632 208.383, 1380.865 201.751 C 1375.942 189.951, 1367.269 182.236, 1354.748 178.518 C 1346.868 176.178, 1331.987 176.545, 1323.973 179.277 M 853 189.982 L 853 200.964 876.356 201.232 L 899.713 201.500 875.868 232 L 852.023 262.500 852.012 271.250 L 852 280 893.500 280 L 935 280 935 269.018 L 935 258.036 911.211 257.768 L 887.422 257.500 910.671 227.500 L 933.920 197.500 933.960 188.250 L 934 179 893.500 179 L 853 179 853 189.982 M 998.007 197.593 C 996.086 198.426, 993.439 200.096, 992.125 201.304 C 989.287 203.912, 985.024 212.569, 985.010 215.750 L 985 218 1005.128 218 L 1025.256 218 1024.601 213.908 C 1023.837 209.125, 1021.009 203.220, 1018.320 200.788 C 1013.254 196.207, 1004.410 194.816, 998.007 197.593 M 1332.007 197.593 C 1330.086 198.426, 1327.439 200.096, 1326.125 201.304 C 1323.287 203.912, 1319.024 212.569, 1319.010 215.750 L 1319 218 1339.128 218 L 1359.256 218 1358.601 213.908 C 1357.837 209.125, 1355.009 203.220, 1352.320 200.788 C 1347.254 196.207, 1338.410 194.816, 1332.007 197.593 M 189 259.935 C 175.480 264.063, 166.675 275.723, 166.675 289.500 C 166.675 316.840, 199.105 330.025, 218.543 310.588 C 224.560 304.570, 227 298.487, 227 289.500 C 227 280.513, 224.560 274.430, 218.543 268.412 C 210.699 260.569, 198.443 257.052, 189 259.935 M 283.492 260.736 C 262.436 268.274, 256.136 294.639, 271.591 310.541 C 278.031 317.166, 283.666 319.467, 293.500 319.485 C 302.925 319.503, 308.508 317.256, 314.882 310.882 C 321.245 304.519, 323.500 298.925, 323.500 289.500 C 323.500 280.075, 321.245 274.481, 314.882 268.118 C 306.707 259.942, 294.034 256.962, 283.492 260.736 M 382 259.935 C 368.480 264.063, 359.675 275.723, 359.675 289.500 C 359.675 316.840, 392.105 330.025, 411.543 310.588 C 417.560 304.570, 420 298.487, 420 289.500 C 420 280.513, 417.560 274.430, 411.543 268.412 C 403.699 260.569, 391.443 257.052, 382 259.935" stroke="none" fill="#2c6444" fill-rule="evenodd"/></svg>